<?xml version="1.0"?>
<svg xmlns="http://www.w3.org/2000/svg" width="512" height="512" viewBox="0 0 512 512"><path d="M407.76,246.06l-8-32A8,8,0,0,0,392,208H335.59L328.43,72H336a8,8,0,0,0,7.59-5.47l16-48A8,8,0,0,0,352,8H160a8,8,0,0,0-7.59,10.53l16,48A8,8,0,0,0,176,72h7.57l-7.16,136H120a8,8,0,0,0-7.76,6.06l-8,32A8,8,0,0,0,112,256H232V480a8.008,8.008,0,0,0,2.34,5.66l16,16a8.015,8.015,0,0,0,11.32,0l16-16A8.008,8.008,0,0,0,280,480V256H400a8,8,0,0,0,7.76-9.94ZM181.77,56,171.1,24H340.9L330.23,56Zm137.8,152H192.43l7.16-136H312.41ZM264,476.69l-8,8-8-8V256h16ZM122.25,240l4-16h259.5l4,16Z"/></svg>
